#!OML:ASF E:/inclinewalkrobotboard/Project1/Captureday1/Session1/subject1.ASF
:FULLY-SPECIFIED
:DEGREES
276
root 0 0 0 2.785483011573311 -4.245818327339961 2.1861279816086387
lowerback 11.946385182366232 1.1426124580285633 -0.1292499130087329
upperback -4.187162965534496 1.4681253769987108 -0.7756404724391833
thorax -11.153266263531169 0.6746767976336394 -1.0586158616886168
lowerneck -6.9946538569071715 1.3369693486336451 4.286214519575828
upperneck 18.91443294663025 2.7692246445504125 -8.065822544842366
head 7.074101275350414 0.9575071476295726 -3.1305585096579245
rclavicle -1.501957337962514E-15 -9.650723058281879E-16
rhumerus 18.007280268494668 14.103509053450045 -51.80821732743429
rradius 69.36576807624249
rwrist 23.27993245499738
rhand -32.97324887649504 -49.05455959319033
rfingers 7.125019999999963
rthumb -6.2411752477650655 -79.09949965766354
lclavicle 8.002078587584598E-16 8.76647765873401E-16
lhumerus 17.927376075939748 -13.965467703222098 49.531607806671985
lradius 67.41339701403392
lwrist -18.046060062110918
lhand -43.970591555648944 -60.236833923703394
lfingers 7.125019999999957
lthumb -16.802087401937055 -30.796234470619
rfemur -25.358891567308106 1.663165364344061 20.043406109233075
rtibia 34.06919391722603
rfoot -30.639703798638358 -17.16989091558014
rtoes -19.68663743581829
lfemur -23.54911377189103 1.244049512701043 -15.78298888503119
ltibia 35.82243439732626
lfoot -29.970089513374973 7.03237236175836
ltoes -18.326919548626876
277
root 0 0 0 2.871940689703687 -4.289382497731436 2.123352747846603
lowerback 11.853172649170792 1.1841855377201647 -0.0683661549763046
upperback -4.201997435390297 1.52771269950266 -0.7870385247060275
thorax -11.106886271648957 0.7022601449460428 -1.1107887778626668
lowerneck -6.982770924829979 1.3026117215043536 4.2664251634103305
upperneck 18.964009000191346 2.7171339169385 -8.01584980114111
head 7.089646134417164 0.9360683254939172 -3.115808021735483
rclavicle -1.4168731083265696E-15 -7.601011438414269E-16
rhumerus 17.84621768101659 13.922281159863873 -51.7525171632549
rradius 69.23496050018741
rwrist 23.354517086475852
rhand -32.95092862502305 -48.98256391095317
rfingers 7.125019999999962
rthumb -6.217707295150785 -79.03109820663286
lclavicle 8.89029606852356E-16 9.809167269457222E-16
lhumerus 17.724876854819335 -13.72159990946957 49.51271321068313
lradius 67.20551633084911
lwrist -18.13473764892227
lhand -43.92667569648936 -60.25407568280161
lfingers 7.125019999999956
lthumb -16.76050132287131 -30.805374224764247
rfemur -23.824892785021355 2.3789812744816046 20.458308462058177
rtibia 30.109027315975595
rfoot -30.151954255175614 -16.61197259729558
rtoes -20.992256003738508
lfemur -22.082134368330752 0.4153250677335608 -15.602277730775079
ltibia 32.3381393775242
lfoot -28.48160967567971 6.55163262675996
ltoes -19.309621602710433
278
root 0 0 0 2.874645400418601 -4.282894038333244 2.1130705688748574
lowerback 11.796263437860905 1.192694832126398 -0.058836655220359524
upperback -4.212336537790582 1.5380203277658508 -0.792963583992509
thorax -11.081945147956901 0.7071060780548856 -1.1219414115899184
lowerneck -6.96310341089245 1.2781179473180482 4.261762820745167
upperneck 19.104298988360124 2.681777675661226 -8.014044795605272
head 7.134160646647609 0.918808760445336 -3.1187155074511317
rclavicle -1.2139507631945897E-15 -7.083441281939432E-16
rhumerus 17.479210669364285 13.451525228715218 -51.507205210171506
rradius 68.93900148647896
rwrist 23.637750786955408
rhand -32.926880781909034 -48.952326466310936
rfingers 7.125019999999962
rthumb -6.192058422038681 -79.01209284083922
lclavicle 9.58470663301193E-16 9.248758286262663E-16
lhumerus 17.485048180874024 -13.370449893462837 49.44865327376037
lradius 66.94033817718639
lwrist -18.294329836557754
lhand -43.887565590011185 -60.388000027430465
lfingers 7.125019999999955
lthumb -16.72409297490025 -30.9321962044926
rfemur -23.05464115369241 2.4494806888169944 20.176614041036956
rtibia 30.34930407639596
rfoot -27.959581147956087 -15.891351253521286
rtoes -21.427662653965825
lfemur -20.696501013415606 -0.012933445463332027 -15.23406159701306
ltibia 31.969867849683702
lfoot -25.696487014299002 5.056122399141125
ltoes -20.02100693816147
279
root 0 0 0 2.79124853575355 -4.259916032027663 2.163932382115569
lowerback 11.785324537949245 1.1819431077440257 -0.10060955259206683
upperback -4.218630686366962 1.5171318851921893 -0.8026382467896157
thorax -11.084891346935542 0.6981546349227044 -1.1043349847558823
lowerneck -6.927022511263092 1.2672575288561838 4.269885614209142
upperneck 19.296028454486688 2.6680079663552956 -8.051277691201644
head 7.193133654477463 0.9088587587856699 -3.1349469501229326
rclavicle -9.261456748944369E-16 -8.10963405535762E-16
rhumerus 17.02263825208602 12.842032476325324 -51.153189648803206
rradius 68.57129591603342
rwrist 24.03768488362597
rhand -32.90784930949193 -48.9694946626389
rfingers 7.125019999999962
rthumb -6.171660111014463 -79.04707455406682
lclavicle 1.0076775735897422E-15 7.353615547208493E-16
lhumerus 17.2749274244445 -12.995851715774977 49.34803426606782
lradius 66.68551855609644
lwrist -18.4918122034042
lhand -43.86594938011586 -60.622153390998335
lfingers 7.125019999999955
lthumb -16.704765331056205 -31.162831198495635
rfemur -23.40971678222163 1.7968868710258907 19.169612369223675
rtibia 35.132321878721186
rfoot -24.21893371412792 -15.093607095477509
rtoes -20.741715436466954
lfemur -19.465219566892976 0.10177845561810078 -14.81872702241724
ltibia 35.11303048874221
lfoot -22.33641559048967 2.704605837529864
ltoes -20.623647764137466
280
root 0 0 0 2.61128223407927 -4.2255135059704125 2.288220784698296
lowerback 11.830575121506623 1.1543164431286903 -0.2049538461008772
upperback -4.214855555711924 1.4668758919836653 -0.8189713769601773
thorax -11.116372955832928 0.6767818805130916 -1.0545715898627597
lowerneck -6.885323431505206 1.2756847345413658 4.2844950845620104
upperneck 19.474291796359015 2.683018544522689 -8.10909480219317
head 7.246578249690167 0.9107206032138352 -3.156307463073711
rclavicle -6.379796333003261E-16 -1.0394728219069263E-15
rhumerus 16.570366652818528 12.21826996187153 -50.76132605214596
rradius 68.20715135843295
rwrist 24.474204374666954
rhand -32.89795514681075 -49.03269979777478
rfingers 7.125019999999962
rthumb -6.160902385678009 -79.13296499081375
lclavicle 1.0143367516500257E-15 4.529695401449166E-16
lhumerus 17.150217643492773 -12.67968430446431 49.22572706563595
lradius 66.50292467020718
lwrist -18.68873238507926
lhand -43.87182735424411 -60.92820985909288
lfingers 7.125019999999954
lthumb -16.711861843295786 -31.46911535185532
rfemur -25.475843394544814 0.35558417861617286 17.362606788314064
rtibia 44.711261606740756
rfoot -18.866637632104197 -14.276586568080756
rtoes -18.494775146383965
lfemur -18.436742089389337 0.8790347612933346 -14.451915229064745
ltibia 42.51581632431823
lfoot -18.55716915283107 -0.6252419483206082
ltoes -21.062027408834044
281
root 0 0 0 2.3240680509908023 -4.150850336195636 2.482294537138492
lowerback 11.940800366912391 1.0981550973329726 -0.3779634139307263
upperback -4.190063013227957 1.3714703039886582 -0.8327298347808273
thorax -11.171080190996424 0.6356695681086943 -0.9567448956881655
lowerneck -6.870088123611856 1.3077380963552903 4.300160370434159
upperneck 19.576277310953017 2.7324788522106997 -8.171415720425024
head 7.278461146266425 0.9279302405956905 -3.1760695607188607
rclavicle -4.58489337810857E-16 -1.3714327479952413E-15
rhumerus 16.194117953831835 11.676715221226265 -50.39012911448887
rradius 67.90407332106896
rwrist 24.882037975552883
rhand -32.899462620774266 -49.1354096809357
rfingers 7.125019999999963
rthumb -6.161924029469223 -79.26020298610715
lclavicle 9.272460907410464E-16 1.1119025465947586E-16
lhumerus 17.1536003788011 -12.501789171740706 49.10384908275611
lradius 66.44673906314425
lwrist -18.84162217696726
lhand -43.90977071760591 -61.25700959006303
lfingers 7.125019999999955
lthumb -16.74958602805066 -31.80128022163591
rfemur -28.881439710530906 -1.1894248761992134 15.556258826907643
rtibia 54.55968775704899
rfoot -13.37549620573274 -13.461584288788886
rtoes -14.917799608469181
lfemur -17.662182656543393 2.2300355917082815 -14.322141344394655
ltibia 53.31624440279507
lfoot -14.15506386739694 -4.7785660786040625
ltoes -20.582208182660253
282
root 0 0 0 1.9781526172196178 -4.009077491234954 2.6913947147653277
lowerback 12.093204907043166 1.0039888411862097 -0.5856900444592016
upperback -4.139497519094864 1.2227140244382442 -0.8239040431809795
thorax -11.227986112827324 0.5699394048985529 -0.8075431732486076
lowerneck -6.919557413730822 1.3528847413886023 4.310799192063597
upperneck 19.60391222426056 2.8013432770369153 -8.227636349555203
head 7.295362210223641 0.9539594943493254 -3.1915174453313204
rclavicle -4.922398151585467E-16 -1.753212390016237E-15
rhumerus 15.94103928408038 11.301277628884149 -50.12011786910987
rradius 67.70110305087302
rwrist 25.176716193307172
rhand -32.90540952969605 -49.227282465913085
rfingers 7.125019999999963
rthumb -6.167245131199422 -79.36943015079561
lclavicle 6.699004770178224E-16 -2.0644051930984272E-16
lhumerus 17.25632329278097 -12.50212512910759 49.0275779121595
lradius 66.51427630818363
lwrist -18.902551703411127
lhand -43.958790388810186 -61.48365520420933
lfingers 7.125019999999956
lthumb -16.797868998924553 -32.03215713304948
rfemur -31.8327122607685 -2.108048927854484 14.780282510577262
rtibia 60.233436129973775
rfoot -10.363237104700469 -12.92136960274096
rtoes -11.345844944524993
lfemur -17.672596663306454 3.717520581206614 -14.635576705070513
ltibia 63.03339260327971
lfoot -9.94210787242275 -8.163555067433183
ltoes -17.997420113097803
283
root 0 0 0 1.706078674991994 -3.855866302288324 2.8499855895522406
lowerback 12.229999936768388 0.9019602029405156 -0.7657145741571351
upperback -4.0819859559339235 1.0675290731619955 -0.7960555142480582
thorax -11.265360572973051 0.5001839907446851 -0.6537229313573891
lowerneck -7.012920101530528 1.3906138159023838 4.30991536132651
upperneck 19.58862649988773 2.8594088521016277 -8.263624510497847
head 7.304489933903187 0.9762163889563794 -3.1992322113825846
rclavicle -6.673847083343133E-16 -2.053971215713409E-15
rhumerus 15.877513252655122 11.20825461767083 -50.052845261204624
rradius 67.65228446584443
rwrist 25.249221805977342
rhand -32.9079052508544 -49.25374514295638
rfingers 7.125019999999964
rthumb -6.169542389510392 -79.39538341766666
lclavicle 3.5706166818626957E-16 -3.9514651521455533E-16
lhumerus 17.384993801753936 -12.6534523752576 49.0332075881702
lradius 66.64977400293469
lwrist -18.85093893821782
lhand -43.99109514601669 -61.501781584544425
lfingers 7.125019999999957
lthumb -16.82976228221511 -32.05347791709204
rfemur -33.944169178854736 -2.4916225168188806 14.63050706940548
rtibia 62.28596702091123
rfoot -10.047297766086515 -13.038327390259404
rtoes -8.974700365906557
lfemur -18.796523110046255 4.809977701274726 -15.1212754440051
ltibia 68.16361734783543
lfoot -8.12449505764993 -9.119615521835946
ltoes -14.47760020356143
